G75*
G70*
%OFA0B0*%
%FSLAX24Y24*%
%IPPOS*%
%LPD*%
%AMOC8*
5,1,8,0,0,1.08239X$1,22.5*
%
%ADD10C,0.0040*%
%ADD11C,0.0080*%
%ADD12C,0.0060*%
%ADD13C,0.0050*%
%ADD14R,0.0340X0.0300*%
%ADD15C,0.0100*%
%ADD16R,0.0157X0.0827*%
D10*
X010688Y006663D02*
X010995Y006663D01*
X011148Y006816D01*
X010995Y006970D01*
X010688Y006970D01*
X010688Y007123D02*
X010688Y007353D01*
X010765Y007430D01*
X010918Y007430D01*
X010995Y007353D01*
X010995Y007123D01*
X011148Y007123D02*
X010688Y007123D01*
X010995Y007277D02*
X011148Y007430D01*
X011148Y007583D02*
X010842Y007890D01*
X010765Y007890D01*
X010688Y007814D01*
X010688Y007660D01*
X010765Y007583D01*
X011148Y007583D02*
X011148Y007890D01*
X012717Y007389D02*
X012870Y007235D01*
X012793Y007082D02*
X012717Y007005D01*
X012717Y006852D01*
X012793Y006775D01*
X013100Y006775D01*
X013177Y006852D01*
X013177Y007005D01*
X013100Y007082D01*
X013177Y007235D02*
X013177Y007542D01*
X013177Y007389D02*
X012717Y007389D01*
X012793Y006622D02*
X012717Y006545D01*
X012717Y006391D01*
X012793Y006315D01*
X012870Y006315D01*
X012947Y006391D01*
X012947Y006545D01*
X013024Y006622D01*
X013100Y006622D01*
X013177Y006545D01*
X013177Y006391D01*
X013100Y006315D01*
X013100Y006161D02*
X012793Y006161D01*
X012717Y006084D01*
X012717Y005931D01*
X012793Y005854D01*
X013100Y005854D01*
X013177Y005931D01*
X013177Y006084D01*
X013100Y006161D01*
X023893Y010198D02*
X023893Y010658D01*
X024124Y010658D01*
X024200Y010581D01*
X024200Y010428D01*
X024124Y010351D01*
X023893Y010351D01*
X024047Y010351D02*
X024200Y010198D01*
X024354Y010274D02*
X024431Y010198D01*
X024584Y010198D01*
X024661Y010274D01*
X024661Y010351D01*
X024584Y010428D01*
X024507Y010428D01*
X024584Y010428D02*
X024661Y010505D01*
X024661Y010581D01*
X024584Y010658D01*
X024431Y010658D01*
X024354Y010581D01*
X025032Y009637D02*
X025032Y009330D01*
X025032Y009483D02*
X024571Y009483D01*
X024725Y009330D01*
X024802Y009176D02*
X024878Y009099D01*
X024878Y008869D01*
X024878Y009023D02*
X025032Y009176D01*
X024802Y009176D02*
X024648Y009176D01*
X024571Y009099D01*
X024571Y008869D01*
X025032Y008869D01*
X025003Y008662D02*
X025080Y008662D01*
X025157Y008585D01*
X025157Y008432D01*
X025080Y008355D01*
X025003Y008355D01*
X024927Y008432D01*
X024927Y008585D01*
X025003Y008662D01*
X025157Y008585D02*
X025234Y008662D01*
X025310Y008662D01*
X025387Y008585D01*
X025387Y008432D01*
X025310Y008355D01*
X025234Y008355D01*
X025157Y008432D01*
X025080Y008202D02*
X025003Y008202D01*
X024927Y008125D01*
X024927Y007971D01*
X025003Y007895D01*
X025003Y007741D02*
X024927Y007665D01*
X024927Y007511D01*
X025003Y007434D01*
X025310Y007434D01*
X025387Y007511D01*
X025387Y007665D01*
X025310Y007741D01*
X025387Y007895D02*
X025080Y008202D01*
X025387Y008202D02*
X025387Y007895D01*
X024980Y011698D02*
X024520Y011698D01*
X024520Y011928D01*
X024596Y012005D01*
X024750Y012005D01*
X024827Y011928D01*
X024827Y011698D01*
X024827Y011851D02*
X024980Y012005D01*
X024980Y012158D02*
X024673Y012465D01*
X024596Y012465D01*
X024520Y012389D01*
X024520Y012235D01*
X024596Y012158D01*
X024980Y012158D02*
X024980Y012465D01*
X013165Y013449D02*
X013088Y013372D01*
X012781Y013372D01*
X012704Y013449D01*
X012704Y013603D01*
X012781Y013679D01*
X012858Y013833D02*
X012704Y013986D01*
X013165Y013986D01*
X013165Y013833D02*
X013165Y014140D01*
X013088Y014293D02*
X013011Y014293D01*
X012934Y014370D01*
X012934Y014523D01*
X013011Y014600D01*
X013088Y014600D01*
X013165Y014523D01*
X013165Y014370D01*
X013088Y014293D01*
X012934Y014370D02*
X012858Y014293D01*
X012781Y014293D01*
X012704Y014370D01*
X012704Y014523D01*
X012781Y014600D01*
X012858Y014600D01*
X012934Y014523D01*
X012165Y014293D02*
X012088Y014293D01*
X011781Y014600D01*
X011704Y014600D01*
X011704Y014293D01*
X011704Y013986D02*
X012165Y013986D01*
X012165Y013833D02*
X012165Y014140D01*
X011858Y013833D02*
X011704Y013986D01*
X011781Y013679D02*
X011704Y013603D01*
X011704Y013449D01*
X011781Y013372D01*
X012088Y013372D01*
X012165Y013449D01*
X012165Y013603D01*
X012088Y013679D01*
X013088Y013679D02*
X013165Y013603D01*
X013165Y013449D01*
X008165Y013449D02*
X008088Y013372D01*
X007781Y013372D01*
X007704Y013449D01*
X007704Y013603D01*
X007781Y013679D01*
X007858Y013833D02*
X007704Y013986D01*
X008165Y013986D01*
X008165Y013833D02*
X008165Y014140D01*
X008088Y014293D02*
X008165Y014370D01*
X008165Y014523D01*
X008088Y014600D01*
X008011Y014600D01*
X007934Y014523D01*
X007934Y014293D01*
X008088Y014293D01*
X007934Y014293D02*
X007781Y014447D01*
X007704Y014600D01*
X008088Y013679D02*
X008165Y013603D01*
X008165Y013449D01*
X009289Y017380D02*
X009442Y017380D01*
X009365Y017380D02*
X009365Y017840D01*
X009289Y017840D02*
X009442Y017840D01*
X009595Y017764D02*
X009595Y017457D01*
X009672Y017380D01*
X009826Y017380D01*
X009902Y017457D01*
X010056Y017457D02*
X010133Y017380D01*
X010286Y017380D01*
X010363Y017457D01*
X010363Y017533D01*
X010286Y017610D01*
X010056Y017610D01*
X010056Y017457D01*
X010056Y017610D02*
X010209Y017764D01*
X010363Y017840D01*
X009902Y017764D02*
X009826Y017840D01*
X009672Y017840D01*
X009595Y017764D01*
D11*
X008797Y016004D02*
X008797Y013644D01*
X011377Y013644D01*
X011377Y016004D01*
X027706Y012811D02*
X028277Y012811D01*
X028277Y011768D01*
X029124Y011768D01*
X029419Y012063D01*
X030915Y012063D01*
X030915Y011729D01*
X031378Y011729D01*
X031378Y010233D01*
X030915Y010233D01*
X030915Y009898D01*
X029419Y009898D01*
X029124Y010193D01*
X028277Y010193D01*
X028277Y009150D01*
X027706Y009150D01*
X027706Y009465D02*
X027706Y012496D01*
D12*
X027016Y008451D02*
X027016Y007811D01*
X026803Y007811D02*
X027230Y007811D01*
X026803Y008238D02*
X027016Y008451D01*
X026585Y008451D02*
X026158Y008024D01*
X026265Y008131D02*
X026585Y007811D01*
X026158Y007811D02*
X026158Y008451D01*
X025940Y008344D02*
X025834Y008451D01*
X025620Y008451D01*
X025513Y008344D01*
X025513Y007917D01*
X025620Y007811D01*
X025834Y007811D01*
X025940Y007917D01*
X025296Y007917D02*
X025189Y007811D01*
X024976Y007811D01*
X024869Y007917D01*
X024976Y008131D02*
X025189Y008131D01*
X025296Y008024D01*
X025296Y007917D01*
X024976Y008131D02*
X024869Y008238D01*
X024869Y008344D01*
X024976Y008451D01*
X025189Y008451D01*
X025296Y008344D01*
X011499Y007273D02*
X011501Y007314D01*
X011507Y007355D01*
X011517Y007395D01*
X011530Y007434D01*
X011547Y007471D01*
X011568Y007507D01*
X011592Y007541D01*
X011619Y007572D01*
X011648Y007600D01*
X011681Y007626D01*
X011715Y007648D01*
X011752Y007667D01*
X011790Y007682D01*
X011830Y007694D01*
X011870Y007702D01*
X011911Y007706D01*
X011953Y007706D01*
X011994Y007702D01*
X012034Y007694D01*
X012074Y007682D01*
X012112Y007667D01*
X012148Y007648D01*
X012183Y007626D01*
X012216Y007600D01*
X012245Y007572D01*
X012272Y007541D01*
X012296Y007507D01*
X012317Y007471D01*
X012334Y007434D01*
X012347Y007395D01*
X012357Y007355D01*
X012363Y007314D01*
X012365Y007273D01*
X012363Y007232D01*
X012357Y007191D01*
X012347Y007151D01*
X012334Y007112D01*
X012317Y007075D01*
X012296Y007039D01*
X012272Y007005D01*
X012245Y006974D01*
X012216Y006946D01*
X012183Y006920D01*
X012149Y006898D01*
X012112Y006879D01*
X012074Y006864D01*
X012034Y006852D01*
X011994Y006844D01*
X011953Y006840D01*
X011911Y006840D01*
X011870Y006844D01*
X011830Y006852D01*
X011790Y006864D01*
X011752Y006879D01*
X011716Y006898D01*
X011681Y006920D01*
X011648Y006946D01*
X011619Y006974D01*
X011592Y007005D01*
X011568Y007039D01*
X011547Y007075D01*
X011530Y007112D01*
X011517Y007151D01*
X011507Y007191D01*
X011501Y007232D01*
X011499Y007273D01*
X008626Y009902D02*
X008426Y009902D01*
X008426Y010052D01*
X008626Y010052D02*
X008626Y009902D01*
X008626Y010952D02*
X008626Y011102D01*
X008426Y011102D01*
X008426Y010952D01*
D13*
X008001Y010847D02*
X007550Y010847D01*
X007550Y011073D01*
X007626Y011148D01*
X007776Y011148D01*
X007851Y011073D01*
X007851Y010847D01*
X007851Y010687D02*
X007926Y010687D01*
X008001Y010612D01*
X008001Y010462D01*
X007926Y010387D01*
X007776Y010462D02*
X007776Y010612D01*
X007851Y010687D01*
X007626Y010687D02*
X007550Y010612D01*
X007550Y010462D01*
X007626Y010387D01*
X007701Y010387D01*
X007776Y010462D01*
X008001Y010227D02*
X008001Y009927D01*
X007550Y009927D01*
X007701Y011308D02*
X007550Y011458D01*
X008001Y011458D01*
X008001Y011308D02*
X008001Y011608D01*
X013776Y015756D02*
X013776Y005913D01*
X023618Y005913D01*
X023618Y015756D01*
X013776Y015756D01*
D14*
X010087Y013454D03*
D15*
X011381Y010481D02*
X013094Y010481D01*
X013094Y009851D01*
X012995Y009851D01*
X012995Y007332D01*
X013094Y007332D01*
X013094Y006702D01*
X011381Y006702D01*
X011381Y010481D01*
D16*
X011932Y007273D03*
M02*
