G75*
G70*
%OFA0B0*%
%FSLAX24Y24*%
%IPPOS*%
%LPD*%
%AMOC8*
5,1,8,0,0,1.08239X$1,22.5*
%
%ADD10R,0.1942X0.0777*%
%ADD11R,0.0433X0.0394*%
%ADD12R,0.0394X0.0433*%
%ADD13R,0.2000X0.0900*%
%ADD14C,0.0860*%
%ADD15R,0.2126X0.2441*%
%ADD16R,0.0394X0.0630*%
%ADD17R,0.0591X0.0512*%
%ADD18OC8,0.0850*%
%ADD19C,0.0440*%
%ADD20R,0.0394X0.0551*%
%ADD21R,0.0357X0.0357*%
%ADD22C,0.0240*%
%ADD23C,0.0160*%
%ADD24C,0.0400*%
D10*
X026350Y010895D03*
D11*
X010852Y006514D03*
X010852Y007183D03*
X008174Y007073D03*
X008174Y007743D03*
X008153Y008393D03*
X008153Y009062D03*
X024250Y012014D03*
X024250Y012683D03*
X024362Y014608D03*
X025031Y014608D03*
X025017Y015352D03*
X024348Y015352D03*
X024302Y009855D03*
X024302Y009185D03*
D12*
X024307Y008380D03*
X024307Y007711D03*
X024210Y010928D03*
X024879Y010928D03*
X010865Y009307D03*
X010865Y008638D03*
X008786Y010434D03*
X008117Y010434D03*
D13*
X026657Y010981D03*
X026657Y012721D03*
X026657Y009241D03*
D14*
X022437Y010834D03*
X022437Y007094D03*
X014957Y007094D03*
X014957Y014574D03*
X022437Y014574D03*
D15*
X010087Y015478D03*
D16*
X009189Y012604D03*
X010985Y012604D03*
D17*
X011985Y012826D03*
X012985Y012826D03*
X012985Y012078D03*
X011985Y012078D03*
X007985Y012078D03*
X007985Y012826D03*
D18*
X010246Y011182D03*
D19*
X012680Y009591D03*
X011680Y008591D03*
X012680Y007591D03*
D20*
X009898Y009187D03*
X009228Y009187D03*
X009563Y008321D03*
D21*
X009532Y007743D03*
X010852Y008113D03*
X008162Y006563D03*
X013130Y011124D03*
X012941Y013494D03*
X011981Y013494D03*
X011265Y014405D03*
X010478Y014405D03*
X009691Y014405D03*
X008903Y014405D03*
X008903Y015193D03*
X009691Y015193D03*
X010478Y015193D03*
X011265Y015193D03*
X011265Y015980D03*
X010478Y015980D03*
X009691Y015980D03*
X008903Y015980D03*
X008903Y016768D03*
X009691Y016768D03*
X010478Y016768D03*
X011265Y016768D03*
X007952Y013493D03*
X024258Y013224D03*
X025945Y012589D03*
X026995Y012599D03*
X025555Y014538D03*
X025540Y015347D03*
X026006Y009111D03*
X027076Y009121D03*
D22*
X024307Y009180D02*
X024307Y008380D01*
X024307Y007711D02*
X023690Y007094D01*
X022437Y007094D01*
X024307Y009180D02*
X024302Y009185D01*
X024302Y009855D02*
X024302Y010836D01*
X024210Y010928D01*
X024210Y011974D01*
X024250Y012014D01*
X024250Y012683D02*
X024250Y013217D01*
X024258Y013224D01*
X024362Y014608D02*
X024372Y014872D01*
X024348Y015352D01*
X024376Y015325D01*
X025017Y015352D02*
X025270Y015317D01*
X025540Y015347D01*
X025555Y014538D02*
X025140Y014583D01*
X025031Y014608D01*
X022437Y014574D02*
X022345Y014667D01*
X019823Y014667D01*
X015492Y010336D01*
X014311Y010336D01*
X013918Y009943D01*
X013918Y008368D01*
X012362Y006532D01*
X010852Y006514D01*
X010852Y007183D02*
X011267Y007183D01*
X011671Y007587D01*
X011671Y008582D01*
X011680Y008591D01*
X011817Y011911D02*
X011162Y011911D01*
X010985Y012088D01*
X010985Y012604D01*
X011985Y012826D02*
X011985Y013490D01*
X011981Y013494D01*
X012941Y013494D02*
X012985Y013450D01*
X012985Y012826D01*
X012985Y012078D02*
X011985Y012078D01*
X011817Y011911D01*
X009193Y012305D02*
X009193Y012601D01*
X009189Y012604D01*
X009193Y012305D02*
X008967Y012078D01*
X007985Y012078D01*
X007985Y012826D02*
X007985Y013460D01*
X007952Y013493D01*
X024879Y010928D02*
X025925Y010928D01*
X026122Y010730D01*
D23*
X012680Y009591D02*
X011149Y009591D01*
X010865Y009307D01*
X010018Y009307D01*
X009898Y009187D01*
X009898Y009640D01*
X009751Y009787D01*
X008151Y009787D01*
X008121Y009757D01*
X008121Y009094D01*
X008153Y009062D01*
X008153Y010398D01*
X008117Y010434D01*
X008991Y009207D02*
X009208Y009207D01*
X009228Y009187D01*
X008991Y009207D02*
X008891Y009107D01*
X008891Y008707D01*
X008577Y008393D01*
X008153Y008393D01*
X008174Y008372D01*
X008174Y007743D01*
X008174Y007073D02*
X008174Y006575D01*
X008162Y006563D01*
X009532Y007743D02*
X009563Y007774D01*
X009563Y008321D01*
X010852Y008113D02*
X010865Y008126D01*
X010865Y008638D01*
D24*
X013130Y011124D02*
X012982Y011451D01*
X012985Y012078D01*
X022437Y014574D02*
X024329Y014574D01*
X024362Y014608D01*
M02*
