G75*
G70*
%OFA0B0*%
%FSLAX24Y24*%
%IPPOS*%
%LPD*%
%AMOC8*
5,1,8,0,0,1.08239X$1,22.5*
%
%ADD10R,0.1942X0.0777*%
%ADD11R,0.0394X0.0433*%
%ADD12R,0.0433X0.0394*%
%ADD13R,0.2000X0.0900*%
%ADD14C,0.0860*%
%ADD15R,0.2126X0.2441*%
%ADD16R,0.0394X0.0630*%
%ADD17R,0.0591X0.0512*%
%ADD18OC8,0.0850*%
%ADD19C,0.0440*%
%ADD20R,0.0357X0.0357*%
%ADD21C,0.0240*%
%ADD22C,0.0400*%
%ADD23C,0.0160*%
D10*
X026350Y010895D03*
D11*
X008000Y006666D03*
X008000Y007336D03*
X009181Y007371D03*
X009181Y006702D03*
X024210Y010928D03*
X024879Y010928D03*
X024307Y008380D03*
X024307Y007711D03*
D12*
X024302Y009185D03*
X024302Y009855D03*
X024250Y012014D03*
X024250Y012683D03*
X010419Y007331D03*
X010419Y006662D03*
D13*
X026657Y009241D03*
X026657Y010981D03*
X026657Y012721D03*
D14*
X022437Y014574D03*
X022437Y010834D03*
X022437Y007094D03*
X014957Y007094D03*
X014957Y014574D03*
D15*
X010087Y015478D03*
D16*
X009189Y012604D03*
X010985Y012604D03*
D17*
X011985Y012826D03*
X012985Y012826D03*
X012985Y012078D03*
X011985Y012078D03*
X007985Y012078D03*
X007985Y012826D03*
D18*
X008526Y010502D03*
D19*
X011680Y008591D03*
X012680Y009591D03*
X012680Y007591D03*
D20*
X009181Y007888D03*
X007972Y007855D03*
X013130Y011124D03*
X012941Y013494D03*
X011981Y013494D03*
X011265Y014405D03*
X010478Y014405D03*
X009691Y014405D03*
X008903Y014405D03*
X008903Y015193D03*
X009691Y015193D03*
X010478Y015193D03*
X011265Y015193D03*
X011265Y015980D03*
X010478Y015980D03*
X009691Y015980D03*
X008903Y015980D03*
X008903Y016768D03*
X009691Y016768D03*
X010478Y016768D03*
X011265Y016768D03*
X007952Y013493D03*
X024258Y013224D03*
X025945Y012589D03*
X026995Y012599D03*
X027076Y009121D03*
X026006Y009111D03*
D21*
X024307Y009180D02*
X024307Y008380D01*
X024307Y007711D02*
X023690Y007094D01*
X022437Y007094D01*
X024307Y009180D02*
X024302Y009185D01*
X024302Y009855D02*
X024302Y010836D01*
X024210Y010928D01*
X024210Y011974D01*
X024250Y012014D01*
X024250Y012683D02*
X024250Y013217D01*
X024258Y013224D01*
X022437Y014574D02*
X022345Y014667D01*
X019823Y014667D01*
X015492Y010336D01*
X014311Y010336D01*
X013918Y009943D01*
X013918Y008368D01*
X012212Y006662D01*
X010419Y006662D01*
X010379Y006702D01*
X009181Y006702D01*
X009146Y006666D01*
X008000Y006666D01*
X008000Y007336D02*
X008000Y007827D01*
X007972Y007855D01*
X009181Y007887D02*
X009181Y007888D01*
X009181Y007887D02*
X009181Y007371D01*
X008526Y010502D02*
X007985Y011043D01*
X007985Y012078D01*
X008967Y012078D01*
X009193Y012305D01*
X009193Y012601D01*
X009189Y012604D01*
X007985Y012826D02*
X007985Y013460D01*
X007952Y013493D01*
X010985Y012604D02*
X010985Y012088D01*
X011162Y011911D01*
X011817Y011911D01*
X011985Y012078D01*
X012985Y012078D01*
X012985Y012826D02*
X012985Y013450D01*
X012941Y013494D01*
X011985Y013490D02*
X011981Y013494D01*
X011985Y013490D02*
X011985Y012826D01*
X024879Y010928D02*
X025925Y010928D01*
X026122Y010730D01*
D22*
X013130Y011124D02*
X012982Y011451D01*
X012985Y012078D01*
D23*
X013130Y011124D02*
X012680Y010674D01*
X012680Y009591D01*
X011680Y008591D02*
X011456Y008368D01*
X011162Y008368D01*
X010419Y007625D01*
X010419Y007331D01*
M02*
