%
M48
M72
T01C0.0197
T02C0.0240
T03C0.0394
T04C0.0520
%
T01
X8162Y6563
X9532Y7743
X10852Y8113
X13130Y11124
X12941Y13494
X11981Y13494
X11265Y14405
X10478Y14405
X9691Y14405
X8903Y14405
X8903Y15193
X9691Y15193
X10478Y15193
X11265Y15193
X11265Y15980
X10478Y15980
X9691Y15980
X8903Y15980
X8903Y16768
X9691Y16768
X10478Y16768
X11265Y16768
X7952Y13493
X24258Y13224
X25945Y12589
X26995Y12599
X25555Y14538
X25540Y15347
X26006Y9111
X27076Y9121
T02
X12680Y9591
X11680Y8591
X12680Y7591
T03
X14957Y7094
X22437Y7094
X22437Y10834
X22437Y14574
X14957Y14574
T04
X10246Y11182
M30
