G75*
G70*
%OFA0B0*%
%FSLAX24Y24*%
%IPPOS*%
%LPD*%
%AMOC8*
5,1,8,0,0,1.08239X$1,22.5*
%
%ADD10C,0.0060*%
%ADD11C,0.0080*%
%ADD12C,0.0050*%
%ADD13C,0.0040*%
%ADD14R,0.0340X0.0300*%
%ADD15C,0.0100*%
%ADD16R,0.0157X0.0827*%
D10*
X011499Y007273D02*
X011501Y007314D01*
X011507Y007355D01*
X011517Y007395D01*
X011530Y007434D01*
X011547Y007471D01*
X011568Y007507D01*
X011592Y007541D01*
X011619Y007572D01*
X011648Y007600D01*
X011681Y007626D01*
X011715Y007648D01*
X011752Y007667D01*
X011790Y007682D01*
X011830Y007694D01*
X011870Y007702D01*
X011911Y007706D01*
X011953Y007706D01*
X011994Y007702D01*
X012034Y007694D01*
X012074Y007682D01*
X012112Y007667D01*
X012148Y007648D01*
X012183Y007626D01*
X012216Y007600D01*
X012245Y007572D01*
X012272Y007541D01*
X012296Y007507D01*
X012317Y007471D01*
X012334Y007434D01*
X012347Y007395D01*
X012357Y007355D01*
X012363Y007314D01*
X012365Y007273D01*
X012363Y007232D01*
X012357Y007191D01*
X012347Y007151D01*
X012334Y007112D01*
X012317Y007075D01*
X012296Y007039D01*
X012272Y007005D01*
X012245Y006974D01*
X012216Y006946D01*
X012183Y006920D01*
X012149Y006898D01*
X012112Y006879D01*
X012074Y006864D01*
X012034Y006852D01*
X011994Y006844D01*
X011953Y006840D01*
X011911Y006840D01*
X011870Y006844D01*
X011830Y006852D01*
X011790Y006864D01*
X011752Y006879D01*
X011716Y006898D01*
X011681Y006920D01*
X011648Y006946D01*
X011619Y006974D01*
X011592Y007005D01*
X011568Y007039D01*
X011547Y007075D01*
X011530Y007112D01*
X011517Y007151D01*
X011507Y007191D01*
X011501Y007232D01*
X011499Y007273D01*
X010346Y010582D02*
X010346Y010732D01*
X010346Y010582D02*
X010146Y010582D01*
X010146Y010732D01*
X010146Y011632D02*
X010146Y011782D01*
X010346Y011782D01*
X010346Y011632D01*
X024060Y007119D02*
X024167Y006905D01*
X024381Y006692D01*
X024381Y007012D01*
X024487Y007119D01*
X024594Y007119D01*
X024701Y007012D01*
X024701Y006798D01*
X024594Y006692D01*
X024381Y006692D01*
X024594Y006474D02*
X024701Y006367D01*
X024701Y006154D01*
X024594Y006047D01*
X024167Y006047D01*
X024060Y006154D01*
X024060Y006367D01*
X024167Y006474D01*
X024976Y007811D02*
X024869Y007917D01*
X024976Y007811D02*
X025189Y007811D01*
X025296Y007917D01*
X025296Y008024D01*
X025189Y008131D01*
X024976Y008131D01*
X024869Y008238D01*
X024869Y008344D01*
X024976Y008451D01*
X025189Y008451D01*
X025296Y008344D01*
X025513Y008344D02*
X025513Y007917D01*
X025620Y007811D01*
X025834Y007811D01*
X025940Y007917D01*
X026158Y007811D02*
X026158Y008451D01*
X025940Y008344D02*
X025834Y008451D01*
X025620Y008451D01*
X025513Y008344D01*
X026158Y008024D02*
X026585Y008451D01*
X026803Y008238D02*
X027016Y008451D01*
X027016Y007811D01*
X026803Y007811D02*
X027230Y007811D01*
X026585Y007811D02*
X026265Y008131D01*
D11*
X027706Y009150D02*
X028277Y009150D01*
X028277Y010193D01*
X029124Y010193D01*
X029419Y009898D01*
X030915Y009898D01*
X030915Y010233D01*
X031378Y010233D01*
X031378Y011729D01*
X030915Y011729D01*
X030915Y012063D01*
X029419Y012063D01*
X029124Y011768D01*
X028277Y011768D01*
X028277Y012811D01*
X027706Y012811D01*
X027706Y012496D02*
X027706Y009465D01*
X011377Y013644D02*
X008797Y013644D01*
X008797Y016004D01*
X011377Y016004D02*
X011377Y013644D01*
D12*
X009721Y012288D02*
X009721Y011988D01*
X009721Y012138D02*
X009270Y012138D01*
X009421Y011988D01*
X009346Y011828D02*
X009496Y011828D01*
X009571Y011753D01*
X009571Y011527D01*
X009721Y011527D02*
X009270Y011527D01*
X009270Y011753D01*
X009346Y011828D01*
X009346Y011367D02*
X009270Y011292D01*
X009270Y011142D01*
X009346Y011067D01*
X009421Y011067D01*
X009496Y011142D01*
X009496Y011292D01*
X009571Y011367D01*
X009646Y011367D01*
X009721Y011292D01*
X009721Y011142D01*
X009646Y011067D01*
X009721Y010907D02*
X009721Y010607D01*
X009270Y010607D01*
X009063Y009004D02*
X008813Y009004D01*
X008813Y008504D01*
X009063Y008504D01*
X010063Y008504D02*
X010313Y008504D01*
X010313Y009004D01*
X010063Y009004D01*
X013776Y005913D02*
X023618Y005913D01*
X023618Y015756D01*
X013776Y015756D01*
X013776Y005913D01*
D13*
X010651Y005479D02*
X010651Y005249D01*
X011112Y005249D01*
X010958Y005249D02*
X010958Y005479D01*
X010882Y005556D01*
X010728Y005556D01*
X010651Y005479D01*
X010805Y005710D02*
X010651Y005863D01*
X011112Y005863D01*
X011112Y005710D02*
X011112Y006017D01*
X011112Y005556D02*
X010958Y005403D01*
X012717Y005931D02*
X012793Y005854D01*
X013100Y005854D01*
X013177Y005931D01*
X013177Y006084D01*
X013100Y006161D01*
X012793Y006161D01*
X012717Y006084D01*
X012717Y005931D01*
X012793Y006315D02*
X012870Y006315D01*
X012947Y006391D01*
X012947Y006545D01*
X013024Y006622D01*
X013100Y006622D01*
X013177Y006545D01*
X013177Y006391D01*
X013100Y006315D01*
X012793Y006315D02*
X012717Y006391D01*
X012717Y006545D01*
X012793Y006622D01*
X012793Y006775D02*
X013100Y006775D01*
X013177Y006852D01*
X013177Y007005D01*
X013100Y007082D01*
X013177Y007235D02*
X013177Y007542D01*
X013177Y007389D02*
X012717Y007389D01*
X012870Y007235D01*
X012793Y007082D02*
X012717Y007005D01*
X012717Y006852D01*
X012793Y006775D01*
X011518Y008322D02*
X011211Y008322D01*
X011134Y008399D01*
X011134Y008552D01*
X011211Y008629D01*
X011365Y008782D02*
X011365Y009089D01*
X011595Y009012D02*
X011134Y009012D01*
X011365Y008782D01*
X011518Y008629D02*
X011595Y008552D01*
X011595Y008399D01*
X011518Y008322D01*
X009959Y009624D02*
X009652Y009624D01*
X009959Y009931D01*
X009959Y010008D01*
X009883Y010084D01*
X009729Y010084D01*
X009652Y010008D01*
X009499Y010008D02*
X009422Y010084D01*
X009269Y010084D01*
X009192Y010008D01*
X009192Y009701D01*
X009269Y009624D01*
X009422Y009624D01*
X009499Y009701D01*
X009039Y009624D02*
X008885Y009624D01*
X008962Y009624D02*
X008962Y010084D01*
X008885Y010084D02*
X009039Y010084D01*
X008688Y009964D02*
X008381Y009964D01*
X008381Y009734D01*
X008534Y009811D01*
X008611Y009811D01*
X008688Y009734D01*
X008688Y009581D01*
X008611Y009504D01*
X008458Y009504D01*
X008381Y009581D01*
X008228Y009504D02*
X008074Y009658D01*
X008151Y009658D02*
X007921Y009658D01*
X007921Y009504D02*
X007921Y009964D01*
X008151Y009964D01*
X008228Y009888D01*
X008228Y009734D01*
X008151Y009658D01*
X007596Y009105D02*
X007519Y009105D01*
X007443Y009028D01*
X007443Y008798D01*
X007596Y008798D01*
X007673Y008875D01*
X007673Y009028D01*
X007596Y009105D01*
X007289Y008951D02*
X007443Y008798D01*
X007443Y008644D02*
X007519Y008568D01*
X007519Y008337D01*
X007673Y008337D02*
X007212Y008337D01*
X007212Y008568D01*
X007289Y008644D01*
X007443Y008644D01*
X007519Y008491D02*
X007673Y008644D01*
X007289Y008951D02*
X007212Y009105D01*
X007244Y007705D02*
X007320Y007705D01*
X007627Y007399D01*
X007704Y007399D01*
X007704Y007245D02*
X007550Y007092D01*
X007550Y007168D02*
X007550Y006938D01*
X007704Y006938D02*
X007244Y006938D01*
X007244Y007168D01*
X007320Y007245D01*
X007474Y007245D01*
X007550Y007168D01*
X007244Y007399D02*
X007244Y007705D01*
X007781Y013372D02*
X008088Y013372D01*
X008165Y013449D01*
X008165Y013603D01*
X008088Y013679D01*
X008165Y013833D02*
X008165Y014140D01*
X008165Y013986D02*
X007704Y013986D01*
X007858Y013833D01*
X007781Y013679D02*
X007704Y013603D01*
X007704Y013449D01*
X007781Y013372D01*
X007934Y014293D02*
X007934Y014523D01*
X008011Y014600D01*
X008088Y014600D01*
X008165Y014523D01*
X008165Y014370D01*
X008088Y014293D01*
X007934Y014293D01*
X007781Y014447D01*
X007704Y014600D01*
X011704Y014600D02*
X011704Y014293D01*
X011704Y013986D02*
X012165Y013986D01*
X012165Y013833D02*
X012165Y014140D01*
X012165Y014293D02*
X012088Y014293D01*
X011781Y014600D01*
X011704Y014600D01*
X011704Y013986D02*
X011858Y013833D01*
X011781Y013679D02*
X011704Y013603D01*
X011704Y013449D01*
X011781Y013372D01*
X012088Y013372D01*
X012165Y013449D01*
X012165Y013603D01*
X012088Y013679D01*
X012704Y013603D02*
X012704Y013449D01*
X012781Y013372D01*
X013088Y013372D01*
X013165Y013449D01*
X013165Y013603D01*
X013088Y013679D01*
X013165Y013833D02*
X013165Y014140D01*
X013165Y013986D02*
X012704Y013986D01*
X012858Y013833D01*
X012781Y013679D02*
X012704Y013603D01*
X012781Y014293D02*
X012858Y014293D01*
X012934Y014370D01*
X012934Y014523D01*
X013011Y014600D01*
X013088Y014600D01*
X013165Y014523D01*
X013165Y014370D01*
X013088Y014293D01*
X013011Y014293D01*
X012934Y014370D01*
X012934Y014523D02*
X012858Y014600D01*
X012781Y014600D01*
X012704Y014523D01*
X012704Y014370D01*
X012781Y014293D01*
X010363Y017380D02*
X010056Y017380D01*
X010209Y017380D02*
X010209Y017840D01*
X010056Y017687D01*
X009902Y017764D02*
X009826Y017840D01*
X009672Y017840D01*
X009595Y017764D01*
X009595Y017457D01*
X009672Y017380D01*
X009826Y017380D01*
X009902Y017457D01*
X009442Y017380D02*
X009289Y017380D01*
X009365Y017380D02*
X009365Y017840D01*
X009289Y017840D02*
X009442Y017840D01*
X024760Y012550D02*
X024760Y012397D01*
X024837Y012320D01*
X024837Y012166D02*
X024990Y012166D01*
X025067Y012090D01*
X025067Y011860D01*
X025067Y012013D02*
X025220Y012166D01*
X025144Y012320D02*
X025220Y012397D01*
X025220Y012550D01*
X025144Y012627D01*
X025067Y012627D01*
X024990Y012550D01*
X024990Y012473D01*
X024990Y012550D02*
X024913Y012627D01*
X024837Y012627D01*
X024760Y012550D01*
X024837Y012166D02*
X024760Y012090D01*
X024760Y011860D01*
X025220Y011860D01*
X025250Y009715D02*
X025250Y009408D01*
X024943Y009715D01*
X024866Y009715D01*
X024790Y009639D01*
X024790Y009485D01*
X024866Y009408D01*
X024866Y009255D02*
X025020Y009255D01*
X025097Y009178D01*
X025097Y008948D01*
X025250Y008948D02*
X024790Y008948D01*
X024790Y009178D01*
X024866Y009255D01*
X025097Y009101D02*
X025250Y009255D01*
D14*
X010087Y013454D03*
D15*
X011381Y010481D02*
X013094Y010481D01*
X013094Y009851D01*
X012995Y009851D01*
X012995Y007332D01*
X013094Y007332D01*
X013094Y006702D01*
X011381Y006702D01*
X011381Y010481D01*
D16*
X011932Y007273D03*
M02*
