G75*
G70*
%OFA0B0*%
%FSLAX24Y24*%
%IPPOS*%
%LPD*%
%AMOC8*
5,1,8,0,0,1.08239X$1,22.5*
%
%ADD10R,0.0474X0.0513*%
%ADD11R,0.0513X0.0474*%
%ADD12R,0.2080X0.0980*%
%ADD13C,0.0940*%
%ADD14R,0.2206X0.2521*%
%ADD15R,0.0474X0.0710*%
%ADD16R,0.0671X0.0592*%
%ADD17OC8,0.0930*%
%ADD18C,0.0520*%
%ADD19R,0.0437X0.0437*%
D10*
X008000Y006666D03*
X008000Y007336D03*
X009181Y007371D03*
X009181Y006702D03*
X024210Y010928D03*
X024879Y010928D03*
X024307Y008380D03*
X024307Y007711D03*
D11*
X024302Y009185D03*
X024302Y009855D03*
X024250Y012014D03*
X024250Y012683D03*
X010419Y007331D03*
X010419Y006662D03*
D12*
X026657Y009241D03*
X026657Y010981D03*
X026657Y012721D03*
D13*
X022437Y014574D03*
X022437Y010834D03*
X022437Y007094D03*
X014957Y007094D03*
X014957Y014574D03*
D14*
X010087Y015478D03*
D15*
X009189Y012604D03*
X010985Y012604D03*
D16*
X011985Y012826D03*
X012985Y012826D03*
X012985Y012078D03*
X011985Y012078D03*
X007985Y012078D03*
X007985Y012826D03*
D17*
X008526Y010502D03*
D18*
X011680Y008591D03*
X012680Y009591D03*
X012680Y007591D03*
D19*
X009181Y007888D03*
X007972Y007855D03*
X013130Y011124D03*
X012941Y013494D03*
X011981Y013494D03*
X011265Y014405D03*
X010478Y014405D03*
X009691Y014405D03*
X008903Y014405D03*
X008903Y015193D03*
X009691Y015193D03*
X010478Y015193D03*
X011265Y015193D03*
X011265Y015980D03*
X010478Y015980D03*
X009691Y015980D03*
X008903Y015980D03*
X008903Y016768D03*
X009691Y016768D03*
X010478Y016768D03*
X011265Y016768D03*
X007952Y013493D03*
X024258Y013224D03*
X025945Y012589D03*
X026995Y012599D03*
X027076Y009121D03*
X026006Y009111D03*
M02*
